HIERARCHY
ROOT Hips
{
 OFFSET 0.000000 0.000000 0.000000
 CHANNELS 6 Xposition Yposition Zposition Zrotation Yrotation Xrotation
 JOINT LeftUpLeg
 {
  OFFSET -10.548519 0.103460 -1.857825
  CHANNELS 3 Zrotation Yrotation Xrotation
  JOINT LeftLeg
  {
   OFFSET 0.000016 -43.500008 0.000019
   CHANNELS 3 Zrotation Yrotation Xrotation
   JOINT LeftFoot
   {
    OFFSET 0.000011 -42.372192 -0.000004
    CHANNELS 3 Zrotation Yrotation Xrotation
    JOINT LeftToe
    {
     OFFSET -0.000016 0.000001 -17.300001
     CHANNELS 3 Zrotation Yrotation Xrotation
     End Site
     {
      OFFSET 0.000000 0.000000 0.000000
     }
    }
   }
  }
 }
 JOINT RightUpLeg
 {
  OFFSET 10.548484 0.103460 -1.857824
  CHANNELS 3 Zrotation Yrotation Xrotation
  JOINT RightLeg
  {
   OFFSET 0.000031 -43.500046 0.000008
   CHANNELS 3 Zrotation Yrotation Xrotation
   JOINT RightFoot
   {
    OFFSET 0.000010 -42.372261 0.000000
    CHANNELS 3 Zrotation Yrotation Xrotation
    JOINT RightToe
    {
     OFFSET 0.000010 -0.000007 -17.299986
     CHANNELS 3 Zrotation Yrotation Xrotation
     End Site
     {
      OFFSET 0.000000 0.000000 0.000000
     }
    }
   }
  }
 }
 JOINT Spine
 {
  OFFSET 0.000000 6.901969 2.603749
  CHANNELS 3 Zrotation Yrotation Xrotation
  JOINT Spine1
  {
   OFFSET 0.000003 12.588099 -0.000014
   CHANNELS 3 Zrotation Yrotation Xrotation
   JOINT Spine2
   {
    OFFSET -0.000011 12.343207 -0.000019
    CHANNELS 3 Zrotation Yrotation Xrotation
    JOINT Neck
    {
     OFFSET 0.000002 25.832890 0.000025
     CHANNELS 3 Zrotation Yrotation Xrotation
     JOINT Head
     {
      OFFSET 0.000004 11.766609 -0.000013
      CHANNELS 3 Zrotation Yrotation Xrotation
      End Site
      {
       OFFSET 0.000000 0.000000 0.000000
      }
     }
    }
    JOINT LeftShoulder
    {
     OFFSET -6.000105 19.745899 1.480392
     CHANNELS 3 Zrotation Yrotation Xrotation
     JOINT LeftArm
     {
      OFFSET -11.284097 -0.000023 -0.000017
      CHANNELS 3 Zrotation Yrotation Xrotation
      JOINT LeftForeArm
      {
       OFFSET -33.000065 0.000044 -0.000020
       CHANNELS 3 Zrotation Yrotation Xrotation
       JOINT LeftHand
       {
        OFFSET -25.200005 0.000007 0.000023
        CHANNELS 3 Zrotation Yrotation Xrotation
        End Site
        {
         OFFSET 0.000000 0.000000 0.000000
        }
       }
      }
     }
    }
    JOINT RightShoulder
    {
     OFFSET 6.000090 19.746096 1.480391
     CHANNELS 3 Zrotation Yrotation Xrotation
     JOINT RightArm
     {
      OFFSET 11.284126 0.000012 -0.000026
      CHANNELS 3 Zrotation Yrotation Xrotation
      JOINT RightForeArm
      {
       OFFSET 33.000092 -0.000014 0.000010
       CHANNELS 3 Zrotation Yrotation Xrotation
       JOINT RightHand
       {
        OFFSET 25.199760 -0.000418 0.000151
        CHANNELS 3 Zrotation Yrotation Xrotation
        End Site
        {
         OFFSET 0.000000 0.000000 0.000000
        }
       }
      }
     }
    }
   }
  }
 }
}
MOTION
Frames: 8
Frame Time: 0.016667
0.000000 84.778952 0.000000 14.123033 2.416333 -9.512267 4.042676 21.379713 60.272202 -3.236093 9.127779 -45.541606 2.514171 6.018134 -13.648010 0.001131 0.002881 21.454553 -9.455369 -14.613924 7.639548 -1.840640 -1.239115 -29.893514 -6.075943 1.200187 7.661383 -0.001120 -0.002899 21.454558 4.393181 1.017705 -11.472660 8.831222 1.762515 -12.894628 8.830235 1.766777 -12.576215 20.763010 10.935687 -3.132728 -7.287128 5.886579 11.893940 9.533056 -5.044713 0.703067 22.670897 -35.684566 -4.764714 -18.973300 -34.954366 9.744180 -16.782341 9.832372 -28.413413 -11.698626 0.757130 1.347481 -55.540747 -3.429399 -22.630124 13.565068 19.150994 3.571123 7.129527 -7.940722 -4.152354
0.000000 82.000312 0.000000 15.922167 2.262517 -9.629855 10.891639 23.973876 66.863377 -6.221355 9.878677 -41.644187 2.385874 7.888340 -14.214393 0.001129 0.002878 21.454551 -9.411937 -15.711800 7.295725 -2.231772 -0.950519 -36.209568 -7.387984 2.288441 11.949502 -0.001121 -0.002898 21.454558 5.023633 0.708559 -11.842850 10.064391 1.140783 -13.661562 10.063708 1.145642 -13.343030 19.918782 11.934238 -1.097391 -6.668775 7.499037 12.507858 6.491969 -5.573526 0.815740 17.640338 -33.277036 6.580442 -17.701572 -27.996889 7.270518 -16.245861 12.875875 -22.264475 -9.937341 1.206342 1.311137 -52.041230 0.111857 -5.286626 16.249308 22.264005 5.161994 7.396209 -9.166052 1.550298
-0.746244 78.883353 -4.436360 18.218647 2.794010 -9.540200 16.966454 25.012544 73.556953 -10.039759 12.368994 -41.596339 0.180780 10.869811 -14.946804 0.001125 0.002875 21.454555 -10.220752 -17.364209 4.889541 -1.937039 0.218676 -39.627897 -9.255641 3.767016 16.115653 -0.001120 -0.002893 21.454558 5.570147 0.505449 -12.155731 11.139825 0.737515 -14.310162 11.139336 0.742880 -13.991543 19.570801 12.887414 0.093510 -6.472485 8.780637 13.825711 3.819120 -6.154009 0.922250 12.568418 -29.838281 15.638426 -17.356533 -24.182544 6.100509 -16.331446 15.951255 -16.861971 -7.587640 1.609189 1.314308 -49.375350 2.400326 9.649274 20.564008 29.309939 8.950304 9.151877 -10.720341 8.990995
-1.322779 75.946265 -9.400427 21.165343 3.350811 -9.571872 20.961692 25.675180 79.239360 -12.512233 14.612149 -44.220455 -2.344954 13.037064 -18.870495 0.001136 0.002885 21.454551 -11.800601 -16.688572 0.708161 -1.540758 0.241205 -39.711244 -11.349354 4.490474 18.380494 -0.001121 -0.002897 21.454558 6.134565 0.744944 -12.245053 12.276523 1.196994 -14.470853 12.275813 1.202919 -14.152140 18.820994 13.157314 0.215754 -6.804969 9.222843 15.364181 1.271883 -6.163014 1.102652 8.867322 -27.407292 22.116644 -18.725512 -24.272025 6.655025 -17.258190 16.349234 -15.170315 -6.216339 1.683977 1.346526 -46.373254 3.014906 20.411815 26.153162 37.921119 14.932513 15.329783 -13.779268 16.486758
-1.641663 73.379431 -15.025781 23.890400 6.313192 -10.742431 23.483801 23.310412 83.265756 -14.853277 16.183884 -48.286529 -23.998892 13.321938 -22.474177 0.001134 0.002880 21.454550 -14.236488 -17.847890 -2.601006 -0.745875 0.865998 -38.584852 -13.783422 5.047374 16.666490 -0.001121 -0.002902 21.454560 6.629007 0.842840 -12.127855 13.270104 1.355753 -14.231776 13.269333 1.362142 -13.912932 17.864809 13.002714 0.220926 -7.491604 9.254866 17.035968 -0.286473 -6.243043 1.219445 5.339265 -26.044850 28.362224 -20.674173 -27.716232 8.532323 -18.881941 14.310018 -14.408803 -5.623816 0.729987 1.495145 -43.923390 1.956195 31.682862 32.078678 49.365355 23.171267 22.558657 -14.826961 13.747272
-2.128630 71.542311 -21.162639 25.424916 11.998455 -13.313144 20.588120 16.827578 83.908662 -18.733658 16.327774 -54.085500 -27.106785 17.720041 -10.267112 0.001130 0.002873 21.454557 -16.130950 -18.589810 -1.605326 -2.070431 1.096941 -40.906170 -15.674115 5.115693 8.293247 -0.001121 -0.002902 21.454557 7.182240 0.616173 -12.033798 14.363759 0.867335 -14.079065 14.363211 0.874247 -13.760104 17.096961 12.301655 0.424479 -9.070003 8.703169 18.048460 -1.947942 -7.966745 1.250648 2.254652 -25.118186 34.254073 -22.772603 -31.759902 10.878675 -20.943970 10.811250 -15.956032 -5.314798 -1.543023 1.806516 -43.133719 0.785108 43.744565 41.412777 63.620709 35.658321 26.405501 -9.206554 1.293435
-2.954225 70.430884 -26.973782 25.405180 18.859385 -16.410335 16.012802 9.106293 85.688820 -21.815223 14.834619 -62.492325 -22.371888 19.921925 -2.605596 0.001132 0.002880 21.454550 -15.465844 -19.741236 1.259401 -6.736042 3.380519 -45.082572 -20.060660 7.309526 -4.766447 -0.001119 -0.002899 21.454562 7.955752 0.084260 -12.284831 15.878850 -0.191310 -14.665948 15.878803 -0.183683 -14.346791 15.608439 10.951367 0.908056 -10.791336 7.707745 19.156775 -3.588758 -10.052075 1.306607 -2.583274 -25.235495 37.558648 -24.945598 -32.710609 12.393770 -20.860039 10.162965 -19.181323 -5.601504 -3.093184 2.018417 -43.519957 2.302286 62.198024 54.133153 82.329206 51.307816 25.702719 -2.102851 -8.222417
-4.295864 70.396331 -32.489611 25.454946 25.888748 -20.086915 13.729567 2.437678 88.200147 -24.005881 11.857794 -68.145714 -17.732525 20.349272 1.386691 0.001133 0.002879 21.454553 -12.831541 -18.342411 5.461899 -14.841877 6.278791 -49.257343 -27.772939 10.556094 -19.339456 -0.001117 -0.002897 21.454570 8.577366 -0.564712 -12.850411 17.094247 -1.420271 -15.905232 17.094772 -1.412088 -15.585906 13.866840 8.996809 3.946942 -12.242549 6.388767 18.760745 -4.952890 -12.347846 1.372027 -8.399206 -25.927924 43.242696 -25.788225 -32.173158 12.667396 -18.637606 10.388453 -23.850985 -5.550862 -4.508208 2.210604 -43.308595 8.541575 73.174694 -171.681857 79.655285 -174.516858 26.571815 1.335200 -9.548052
